# xmcd
#
# Track frame offsets:
#	150
#	12747
#	29890
#	42727
#	54892
#	68527
#	86465
#	100335
#	116522
#	131395
#	142185
#	157520
#	168045
#	184985
#
# Disc length: 2646
#
# Revision: 4
# Processed by: cddbd v1.5.1PL0 Copyright (c) Steve Scherf et al.
# Submitted via: FreeRIP 1.21
# Normalized: r2:DSETVAR1,TDELIM( - );r3:TSWAP
#
DISCID=b90a540e
DTITLE=Various Artist - Mr Music Country 1-92
DYEAR=1992
DGENRE=country
TTITLE0=Dean Dillon - Just In Time
TTITLE1=Suzy Boggus - Fear Of Flying
TTITLE2=Garth Brooks - I've Got A Good Thing Going
TTITLE3=Wild Rose - Can't You Stay Gone
TTITLE4=Jo-El Sonnier - All Americans Saturday Night
TTITLE5=Joni Harms - I Used To Be You
TTITLE6=Billy Dean - Billy The Kid
TTITLE7=Eddie Rabbitt - On Second Thought
TTITLE8=Tanya Tucker - Bidding America Goodbye
TTITLE9=Joe Barnhill - For Cryin' Out Loud
TTITLE10=Linda Davis - Some Kinda Woman
TTITLE11=Dude Mowrey - Falling Never Felt So Good
TTITLE12=Lazy J. Dalton - The Loveless Cafe
TTITLE13=Pirates Of The Mississippi - Honky Tonk Blues
EXTD=www.timmie.dk
EXTT0=
EXTT1=
EXTT2=
EXTT3=
EXTT4=
EXTT5=
EXTT6=
EXTT7=
EXTT8=
EXTT9=
EXTT10=
EXTT11=
EXTT12=
EXTT13=
PLAYORDER=
